<?xml version="1.0" encoding="UTF-8" standalone="no"?>
<svg
   xmlns:dc="http://purl.org/dc/elements/1.1/"
   xmlns:cc="http://creativecommons.org/ns#"
   xmlns:rdf="http://www.w3.org/1999/02/22-rdf-syntax-ns#"
   xmlns="http://www.w3.org/2000/svg"
   viewBox="0 0 1920 1920"
   height="1920"
   width="1920"
   xml:space="preserve"
   id="svg2"
   version="1.1"><metadata
     id="metadata8"><rdf:RDF><cc:Work
         rdf:about=""><dc:format>image/svg+xml</dc:format><dc:type
           rdf:resource="http://purl.org/dc/dcmitype/StillImage" /></cc:Work></rdf:RDF></metadata><defs
     id="defs6"><clipPath
       id="clipPath18"
       clipPathUnits="userSpaceOnUse"><path
         id="path16"
         d="M 0,1440 H 1440 V 0 H 0 Z" /></clipPath><clipPath
       id="clipPath26"
       clipPathUnits="userSpaceOnUse"><path
         id="path24"
         d="M 0,1440 H 1440 V 6.11035 H 0 Z" /></clipPath><clipPath
       id="clipPath40"
       clipPathUnits="userSpaceOnUse"><path
         id="path38"
         d="M 0,1440 H 1440 V 0 H 0 Z" /></clipPath><clipPath
       id="clipPath52"
       clipPathUnits="userSpaceOnUse"><path
         id="path50"
         d="M 755.334,1269.93 H 1149.97 V 370.571 H 755.334 Z" /></clipPath><clipPath
       id="clipPath80"
       clipPathUnits="userSpaceOnUse"><path
         id="path78"
         d="M 755.334,1163.98 H 1149.97 V 264.628 H 755.334 Z" /></clipPath><clipPath
       id="clipPath110"
       clipPathUnits="userSpaceOnUse"><path
         id="path108"
         d="M 0,0 H 1440 V 1419.847 H 0 Z" /></clipPath><clipPath
       id="clipPath118"
       clipPathUnits="userSpaceOnUse"><path
         id="path116"
         d="m 1208.57,1333.33 h 136.19 V 897.225 h -136.19 z" /></clipPath><clipPath
       id="clipPath134"
       clipPathUnits="userSpaceOnUse"><path
         id="path132"
         d="m 1169.96,1115.29 h 213.41 V 716.994 h -213.41 z" /></clipPath><clipPath
       id="clipPath150"
       clipPathUnits="userSpaceOnUse"><path
         id="path148"
         d="m 1135.09,907.429 h 265.92 V 545.607 h -265.92 z" /></clipPath><clipPath
       id="clipPath166"
       clipPathUnits="userSpaceOnUse"><path
         id="path164"
         d="m 1030.15,682.218 h 344.14 V 394.061 h -344.14 z" /></clipPath><clipPath
       id="clipPath182"
       clipPathUnits="userSpaceOnUse"><path
         id="path180"
         d="M 770.271,505.675 H 1343.25 V 209.389 H 770.271 Z" /></clipPath><clipPath
       id="clipPath198"
       clipPathUnits="userSpaceOnUse"><path
         id="path196"
         d="m 128.991,1333.33 h 144.42 V 897.225 h -144.42 z" /></clipPath><clipPath
       id="clipPath214"
       clipPathUnits="userSpaceOnUse"><path
         id="path212"
         d="M 88.0459,1115.29 H 314.361 V 716.994 H 88.0459 Z" /></clipPath><clipPath
       id="clipPath230"
       clipPathUnits="userSpaceOnUse"><path
         id="path228"
         d="M 69.3359,907.429 H 351.346 V 545.607 H 69.3359 Z" /></clipPath><clipPath
       id="clipPath246"
       clipPathUnits="userSpaceOnUse"><path
         id="path244"
         d="M 97.6748,682.218 H 462.63 V 394.061 H 97.6748 Z" /></clipPath><clipPath
       id="clipPath262"
       clipPathUnits="userSpaceOnUse"><path
         id="path260"
         d="M 130.588,505.675 H 738.243 V 209.389 H 130.588 Z" /></clipPath></defs><g
     transform="matrix(1.3333333,0,0,-1.3333333,0,1920)"
     id="g10"><g
       id="g12"><g
         clip-path="url(#clipPath18)"
         id="g14"><g
           id="g20"><g
             id="g22" /><g
             id="g32"><g
               id="g30"
               clip-path="url(#clipPath26)"><path
                 id="path28"
                 style="fill:#dcb23a;fill-opacity:1;fill-rule:nonzero;stroke:none"
                 d="M 1440,6.11 H 0 V 1440 h 1440 z" /></g></g></g></g></g><g
       id="g34"><g
         clip-path="url(#clipPath40)"
         id="g36"><g
           transform="translate(355.9312,1183.3066)"
           id="g42"><path
             id="path44"
             style="fill:#2796a3;fill-opacity:1;fill-rule:nonzero;stroke:none"
             d="M 0,0 C -18.685,-415.541 143.286,-666.74 399.403,-812.629 V 86.61 C 281.611,85.908 150.653,61.033 0,0" /></g><g
           id="g46"><g
             id="g48" /><g
             id="g60"><g
               id="g58"
               clip-path="url(#clipPath52)"><g
                 id="g56"
                 transform="translate(1146.1035,1183.3066)"><path
                   id="path54"
                   style="fill:#2f4c79;fill-opacity:1;fill-rule:nonzero;stroke:none"
                   d="m 0,0 c 31.671,-384.544 -133.939,-647.587 -390.598,-812.735 -0.052,0.04 -0.119,0.066 -0.172,0.106 V 86.606 C -244.312,87.478 -118.21,50.969 0,0" /></g></g></g></g><g
           transform="translate(345.3496,1123.0591)"
           id="g62"><path
             id="path64"
             style="fill:#ffffff;fill-opacity:1;fill-rule:nonzero;stroke:none"
             d="M 0,0 C -19.183,-415.495 147.077,-666.686 409.984,-812.581 V 86.61 C 289.069,85.897 154.64,61.02 0,0" /></g><g
           transform="translate(1156.6211,1123.0591)"
           id="g66"><path
             id="path68"
             style="fill:#ffffff;fill-opacity:1;fill-rule:nonzero;stroke:none"
             d="m 0,0 c -121.395,50.987 -250.885,87.498 -401.287,86.61 v -899.191 c 0.088,-0.048 0.174,-0.099 0.262,-0.148 C -137.515,-647.583 32.521,-384.547 0,0" /></g><g
           transform="translate(355.9312,1077.3555)"
           id="g70"><path
             id="path72"
             style="fill:#2796a3;fill-opacity:1;fill-rule:nonzero;stroke:none"
             d="M 0,0 C -18.685,-415.541 143.286,-666.74 399.403,-812.627 V 86.61 C 281.611,85.908 150.653,61.034 0,0" /></g><g
           id="g74"><g
             id="g76" /><g
             id="g88"><g
               id="g86"
               clip-path="url(#clipPath80)"><g
                 id="g84"
                 transform="translate(1146.1035,1077.3496)"><path
                   id="path82"
                   style="fill:#2f4c79;fill-opacity:1;fill-rule:nonzero;stroke:none"
                   d="m 0,0 c 31.671,-384.544 -133.939,-647.573 -390.598,-812.722 -0.052,0.027 -0.119,0.066 -0.172,0.106 V 86.619 C -244.312,87.491 -118.21,50.982 0,0" /></g></g></g></g><text
           id="text92"
           style="font-variant:normal;font-weight:normal;font-stretch:normal;font-size:647.90930176px;font-family:'Mongolian Baiti';-inkscape-font-specification:MongolianBaiti;writing-mode:lr-tb;fill:#ffffff;fill-opacity:1;fill-rule:nonzero;stroke:none"
           transform="matrix(1,0,0,-0.96192492,518.2729,582.5)"><tspan
             id="tspan90"
             y="0"
             x="0">H</tspan></text>
<text
           id="text96"
           style="font-variant:normal;font-weight:normal;font-stretch:normal;font-size:124.71990204px;font-family:'Mongolian Baiti';-inkscape-font-specification:MongolianBaiti;writing-mode:lr-tb;fill:#2796a3;fill-opacity:1;fill-rule:nonzero;stroke:none"
           transform="matrix(1,0,0,-0.95862489,94.5356,89.3174)"><tspan
             id="tspan94"
             y="0"
             x="0 90.047768 180.09554 263.28372 304.81543 381.01929 471.06705">HORIZON</tspan></text>
<text
           id="text102"
           style="font-variant:normal;font-weight:normal;font-stretch:normal;font-size:121.96869659px;font-family:'Mongolian Baiti';-inkscape-font-specification:MongolianBaiti;writing-mode:lr-tb;fill:#2f4c79;fill-opacity:1;fill-rule:nonzero;stroke:none"
           transform="matrix(1,0,0,-0.98591688,679.8887,90.6191)"><tspan
             id="tspan98"
             y="0"
             x="0">E</tspan><tspan
             id="tspan100"
             y="0"
             x="74.522873 162.58427 250.64568 331.99881 406.52167 481.04456 521.66016 609.72156">DUCATION</tspan></text>
</g></g><g
       id="g104"><g
         clip-path="url(#clipPath110)"
         id="g106"><g
           id="g112"><g
             id="g114" /><g
             id="g126"><g
               id="g124"
               clip-path="url(#clipPath118)"><g
                 id="g122"
                 transform="translate(1339.6582,1256.8394)"><path
                   id="path120"
                   style="fill:#2f4c79;fill-opacity:1;fill-rule:nonzero;stroke:none"
                   d="m 0,0 c 4.27,-21.453 5.724,-42.774 4.864,-63.896 -1.692,-103.274 -73.982,-199.966 -135.949,-295.718 3.45,18.782 8.605,37.552 15.491,57.274 32.702,92.924 77.459,178.353 86.805,270.299 3.317,24.824 4.798,49.595 3.463,74.723 0.277,21.136 0.344,33.812 0.344,33.812 C -13.112,51.221 -4.852,25.696 0,0" /></g></g></g></g><g
           id="g128"><g
             id="g130" /><g
             id="g142"><g
               id="g140"
               clip-path="url(#clipPath134)"><g
                 id="g138"
                 transform="translate(1376.8809,1115.2856)"><path
                   id="path136"
                   style="fill:#2f4c79;fill-opacity:1;fill-rule:nonzero;stroke:none"
                   d="m 0,0 c 5.512,-27.375 7.455,-54.142 6.054,-80.248 -0.979,-21.849 -4.64,-42.906 -10.495,-63.209 -26.239,-99.903 -119.494,-176.595 -202.477,-254.835 7.825,17.422 17.303,34.421 28.684,51.922 53.903,82.482 117.708,154.786 148.691,241.867 9.134,23.304 16.47,47.017 21.162,71.749 C -3.08,-12.293 0,0 0,0" /></g></g></g></g><g
           id="g144"><g
             id="g146" /><g
             id="g158"><g
               id="g156"
               clip-path="url(#clipPath150)"><g
                 id="g154"
                 transform="translate(1400.6738,907.4292)"><path
                   id="path152"
                   style="fill:#2f4c79;fill-opacity:1;fill-rule:nonzero;stroke:none"
                   d="m 0,0 c 1.242,-27.89 -0.938,-54.631 -6.332,-80.221 -4.309,-21.44 -11.169,-41.691 -20.078,-60.857 -41.254,-94.682 -145.163,-156.16 -239.171,-220.744 10.39,16.007 22.379,31.366 36.31,46.911 65.919,73.23 140.061,134.892 184.038,216.171 12.61,21.638 23.502,43.937 31.921,67.664 C -4.931,-11.671 0,0 0,0" /></g></g></g></g><g
           id="g160"><g
             id="g162" /><g
             id="g174"><g
               id="g172"
               clip-path="url(#clipPath166)"><g
                 id="g170"
                 transform="translate(1353.9473,655.2129)"><path
                   id="path168"
                   style="fill:#2f4c79;fill-opacity:1;fill-rule:nonzero;stroke:none"
                   d="M 0,0 C 12.755,16.84 20.343,27.005 20.343,27.005 14.896,-0.384 6.41,-25.829 -4.931,-49.396 c -9.292,-19.789 -20.765,-37.832 -33.984,-54.328 -62.628,-82.137 -178.194,-117.099 -284.879,-157.428 13.906,13.072 29.213,25.128 46.449,36.918 81.45,55.411 168.162,97.643 230.235,166.127 C -29.715,-40.104 -13.826,-21.044 0,0" /></g></g></g></g><g
           id="g176"><g
             id="g178" /><g
             id="g190"><g
               id="g188"
               clip-path="url(#clipPath182)"><g
                 id="g186"
                 transform="translate(1307.6172,473.2637)"><path
                   id="path184"
                   style="fill:#2f4c79;fill-opacity:1;fill-rule:nonzero;stroke:none"
                   d="m 0,0 c 22.325,20.185 35.637,32.411 35.637,32.411 -13.14,-38.742 -30.548,-73.4 -51.922,-104.159 -17.607,-25.921 -38.227,-48.379 -61.2,-67.836 -109.579,-98.225 -290.959,-105.534 -459.862,-124.291 23.409,14.104 48.749,26.146 76.97,37.024 133.358,51.062 272.309,80.407 378.596,158.46 C -52.199,-48.272 -24.718,-26 0,0" /></g></g></g></g><g
           id="g192"><g
             id="g194" /><g
             id="g206"><g
               id="g204"
               clip-path="url(#clipPath198)"><g
                 id="g202"
                 transform="translate(256.981,954.4995)"><path
                   id="path200"
                   style="fill:#2796a3;fill-opacity:1;fill-rule:nonzero;stroke:none"
                   d="m 0,0 c 7.31,-19.722 12.782,-38.492 16.43,-57.274 -65.708,95.752 -142.373,192.443 -144.171,295.717 -0.912,21.123 0.648,42.444 5.155,63.897 5.155,25.696 13.919,51.221 26.503,76.494 0,0 0.079,-12.676 0.37,-33.813 -1.428,-25.127 0.145,-49.898 3.661,-74.722 C -82.138,178.353 -34.671,92.924 0,0" /></g></g></g></g><g
           id="g208"><g
             id="g210" /><g
             id="g222"><g
               id="g220"
               clip-path="url(#clipPath214)"><g
                 id="g218"
                 transform="translate(283.9326,768.9155)"><path
                   id="path216"
                   style="fill:#2796a3;fill-opacity:1;fill-rule:nonzero;stroke:none"
                   d="m 0,0 c 12.082,-17.5 22.141,-34.5 30.428,-51.921 -88.007,78.239 -186.892,154.931 -214.716,254.834 -6.226,20.303 -10.099,41.36 -11.13,63.21 -1.494,26.106 0.568,52.872 6.411,80.247 0,0 3.278,-12.293 8.896,-32.754 4.97,-24.732 12.742,-48.445 22.431,-71.749 C -124.819,154.786 -57.155,82.482 0,0" /></g></g></g></g><g
           id="g224"><g
             id="g226" /><g
             id="g238"><g
               id="g236"
               clip-path="url(#clipPath230)"><g
                 id="g234"
                 transform="translate(312.8408,592.5186)"><path
                   id="path232"
                   style="fill:#2796a3;fill-opacity:1;fill-rule:nonzero;stroke:none"
                   d="M 0,0 C 14.778,-15.545 27.481,-30.904 38.505,-46.911 -61.187,17.673 -171.387,79.15 -215.14,173.833 c -9.45,19.166 -16.707,39.417 -21.294,60.856 -5.711,25.591 -8.024,52.332 -6.715,80.222 0,0 5.234,-11.672 14.117,-31.076 8.936,-23.727 20.489,-46.026 33.852,-67.664 C -148.546,134.892 -69.911,73.229 0,0" /></g></g></g></g><g
           id="g240"><g
             id="g242" /><g
             id="g254"><g
               id="g252"
               clip-path="url(#clipPath246)"><g
                 id="g250"
                 transform="translate(413.3789,430.9785)"><path
                   id="path248"
                   style="fill:#2796a3;fill-opacity:1;fill-rule:nonzero;stroke:none"
                   d="m 0,0 c 18.281,-11.79 34.5,-23.846 49.251,-36.918 -113.148,40.329 -235.694,75.291 -302.103,157.429 -14.024,16.496 -26.198,34.539 -36.059,54.327 -12.015,23.567 -21.017,49.013 -26.793,76.401 0,0 8.05,-10.165 21.572,-27.005 14.673,-21.044 31.512,-40.104 49.965,-58.107 C -178.34,97.644 -86.395,55.411 0,0" /></g></g></g></g><g
           id="g256"><g
             id="g258" /><g
             id="g270"><g
               id="g268"
               clip-path="url(#clipPath262)"><g
                 id="g266"
                 transform="translate(656.6069,246.4131)"><path
                   id="path264"
                   style="fill:#2796a3;fill-opacity:1;fill-rule:nonzero;stroke:none"
                   d="m 0,0 c 29.939,-10.879 56.799,-22.921 81.636,-37.024 -179.12,18.756 -371.485,26.066 -487.686,124.291 -24.361,19.457 -46.224,41.915 -64.915,67.836 -22.669,30.758 -41.122,65.417 -55.054,104.159 0,0 14.117,-12.227 37.805,-32.411 26.211,-26 55.344,-48.273 86.711,-68.391 C -288.778,80.406 -141.421,51.062 0,0" /></g></g></g></g></g></g></g></svg>