<?xml version="1.0" encoding="iso-8859-1"?>
<!-- Generator: Adobe Illustrator 19.0.0, SVG Export Plug-In . SVG Version: 6.00 Build 0)  -->
<svg version="1.1" id="Layer_1" xmlns="http://www.w3.org/2000/svg" xmlns:xlink="http://www.w3.org/1999/xlink" x="0px" y="0px"
	 viewBox="0 0 512 512" style="enable-background:new 0 0 512 512;" xml:space="preserve">
<g>
	<path style="fill:#9AE1D3;" d="M158.646,414.646c0,53.765,43.588,97.354,97.354,97.354s97.354-43.588,97.354-97.354H158.646z"/>
	<path style="fill:#9AE1D3;" d="M255.999,0c-53.766,0-97.354,43.588-97.354,97.354h194.707C353.353,43.588,309.765,0,255.999,0z"/>
</g>
<polygon style="fill:#FFE9BF;" points="353.353,97.354 353.353,194.707 233.155,97.354 "/>
<polygon style="fill:#F9545B;" points="353.353,357.717 227.543,277.602 158.646,163.021 158.646,97.354 255.999,97.354 
	353.353,194.707 "/>
<polygon style="fill:#FFE9BF;" points="353.353,357.717 353.353,414.646 235.668,414.646 158.646,314.78 158.646,163.021 "/>
<polygon style="fill:#F9545B;" points="258.512,414.646 158.646,414.646 158.646,314.78 "/>
<g>
	<path style="fill:#83C7C3;" d="M360.211,108.778H151.788c-6.307,0-11.422-5.114-11.422-11.422s5.115-11.422,11.422-11.422h208.424
		c6.307,0,11.422,5.114,11.422,11.422S366.52,108.778,360.211,108.778z"/>
	<path style="fill:#83C7C3;" d="M360.211,426.067H151.788c-6.307,0-11.422-5.114-11.422-11.422c0-6.309,5.115-11.422,11.422-11.422
		h208.424c6.307,0,11.422,5.114,11.422,11.422C371.635,420.953,366.52,426.067,360.211,426.067z"/>
</g>
<g>
</g>
<g>
</g>
<g>
</g>
<g>
</g>
<g>
</g>
<g>
</g>
<g>
</g>
<g>
</g>
<g>
</g>
<g>
</g>
<g>
</g>
<g>
</g>
<g>
</g>
<g>
</g>
<g>
</g>
</svg>
